<svg width="16" height="16" viewBox="0 0 16 16" xmlns="http://www.w3.org/2000/svg"><path fill-rule="evenodd" d="M8 0C3.58125 0 0 3.58125 0 8C0 12.4187 3.58125 16 8 16C12.4187 16 16 12.4187 16 8C16 3.58125 12.4187 0 8 0ZM11.2703 4.775L6.15312 9.90781L4.81875 7.57188C4.66406 7.30156 4.32188 7.20781 4.05156 7.3625C3.78125 7.51719 3.6875 7.85938 3.84219 8.12969L5.54219 11.1063C5.64531 11.2875 5.83594 11.3906 6.03125 11.3906C6.12656 11.3906 6.22187 11.3672 6.30937 11.3172C6.35938 11.2875 6.40469 11.2531 6.44219 11.2125L6.44844 11.2063L12.0656 5.57188C12.2844 5.35156 12.2844 4.99531 12.0641 4.77656C11.8453 4.55469 11.4906 4.55469 11.2703 4.775ZM10.675 14.3344C11.4938 13.9891 12.2297 13.4922 12.8609 12.8609C13.4937 12.2297 13.9891 11.4938 14.3359 10.675C14.6938 9.82812 14.875 8.92813 14.875 8C14.875 7.07188 14.6938 6.17188 14.3344 5.32344C13.9891 4.50469 13.4922 3.76875 12.8609 3.1375C12.2281 2.50625 11.4938 2.01094 10.675 1.66406C9.82812 1.30625 8.92813 1.125 8 1.125C7.07188 1.125 6.17188 1.30625 5.32344 1.66562C4.50469 2.01094 3.76875 2.50781 3.1375 3.13906C2.50625 3.77187 2.01094 4.50625 1.66406 5.325C1.30625 6.17188 1.125 7.07188 1.125 8C1.125 8.92813 1.30625 9.82812 1.66562 10.6766C2.01094 11.4953 2.50781 12.2312 3.13906 12.8625C3.77187 13.4938 4.50625 13.9891 5.325 14.3359C6.17188 14.6938 7.07188 14.875 8 14.875C8.92813 14.875 9.82812 14.6938 10.675 14.3344Z"/></svg>
