<svg width="16" height="16" viewBox="0 0 16 16" xmlns="http://www.w3.org/2000/svg"><path fill-rule="evenodd" d="M9.34062 0.332812L13.6812 4.71562C13.8906 4.92656 14 5.21094 14 5.50781V14.875C14 15.4969 13.5125 16 12.8906 16H3.15625C2.53438 16 2.01562 15.4969 2.01562 14.875V1.125C2.01562 0.503125 2.53438 0 3.15625 0H8.54688C8.70469 0 8.85938 0.034375 9 0.096875L9.01001 0.101247C9.02123 0.106111 9.03295 0.111189 9.04375 0.117188C9.06719 0.128125 9.08906 0.140625 9.11094 0.153125C9.19375 0.203125 9.27031 0.2625 9.34062 0.332812ZM12.2625 4.875L9.125 1.725V4.875H12.2625ZM12.875 14.875H3.14062V1.125H8V4.875C8 5.49687 8.51875 6 9.14062 6H12.875V14.875ZM8.57812 7C8.88906 7 9.14062 7.25156 9.14062 7.5625C9.14062 7.87344 8.88906 8.125 8.57812 8.125H4.57812C4.26719 8.125 4.01562 7.87344 4.01562 7.5625C4.01562 7.25156 4.26719 7 4.57812 7H8.57812ZM12.1406 10.0625C12.1406 9.75156 11.8891 9.5 11.5781 9.5H4.57812C4.26719 9.5 4.01562 9.75156 4.01562 10.0625C4.01562 10.3734 4.26719 10.625 4.57812 10.625H11.5781C11.8891 10.625 12.1406 10.3734 12.1406 10.0625ZM9.57812 12C9.88906 12 10.1406 12.2516 10.1406 12.5625C10.1406 12.8734 9.88906 13.125 9.57812 13.125H4.57812C4.26719 13.125 4.01562 12.8734 4.01562 12.5625C4.01562 12.2516 4.26719 12 4.57812 12H9.57812Z"/></svg>
