<svg width="16" height="16" viewBox="0 0 16 16" fill="none" xmlns="http://www.w3.org/2000/svg"><mask id="mask0" mask-type="alpha" maskUnits="userSpaceOnUse" x="1" y="1" width="15" height="14"><path fill-rule="evenodd" clip-rule="evenodd" d="M8.30468 10.4734L4.62499 12.0313C4.41718 12.1188 4.2078 12.0578 4.07499 11.9234C3.94218 11.7891 3.88124 11.5813 3.96874 11.375L5.52812 7.69688C5.55312 7.6375 5.58905 7.58282 5.63437 7.5375L11.8406 1.33125C12.2797 0.89219 12.9953 0.889065 13.4344 1.32813L14.6734 2.56719C15.1125 3.00625 15.1094 3.72188 14.6703 4.16094L8.46405 10.3672C8.41718 10.4125 8.36405 10.4484 8.30468 10.4734ZM1.5625 13.875H14.4375C14.7484 13.875 15 14.1266 15 14.4375C15 14.7484 14.7484 15 14.4375 15H1.5625C1.25156 15 1 14.7484 1 14.4375C1 14.1266 1.25156 13.875 1.5625 13.875ZM12.6359 2.12657L12.6391 2.12344L13.8766 3.36094L13.8734 3.36407L12.9047 4.33282L11.6672 3.09532L12.6359 2.12657ZM10.8719 3.89063L6.51563 8.24688L5.60625 10.3938L7.75313 9.48438L12.1094 5.12813L10.8719 3.89063Z" fill="white"/></mask><g mask="url(#mask0)"><path fill-rule="evenodd" clip-rule="evenodd" d="M7.33301 49.3333C29.4244 49.3333 47.333 31.4247 47.333 9.33334C47.333 -12.7581 29.4244 -30.6667 7.33301 -30.6667C-14.7584 -30.6667 -32.667 -12.7581 -32.667 9.33334C-32.667 31.4247 -14.7584 49.3333 7.33301 49.3333Z" fill="black"/></g></svg>
