<svg width="16" height="16" viewBox="0 0 16 16" xmlns="http://www.w3.org/2000/svg"><path fill-rule="evenodd" d="M7.73125 6.93591C9.49687 5.56248 12.05 5.68591 13.6734 7.30935C15.4312 9.06716 15.4328 11.9156 13.675 13.6734C11.9172 15.4312 9.06875 15.4312 7.31094 13.6734C5.6875 12.05 5.56406 9.49685 6.9375 7.73123L1.16719 1.96091C0.946875 1.74216 0.946875 1.38591 1.16719 1.1656C1.38594 0.945288 1.74219 0.945288 1.9625 1.1656L7.73125 6.93591ZM8.10469 12.8781C9.42344 14.1969 11.5594 14.1969 12.8781 12.8781C14.1953 11.5594 14.1969 9.42341 12.8781 8.10466C11.5594 6.78591 9.42344 6.78591 8.10469 8.10466C6.78594 9.42341 6.78594 11.5594 8.10469 12.8781ZM5.49687 4.67966L6.69063 3.48591C6.91094 3.2656 6.91094 2.90935 6.69063 2.6906C6.47031 2.47029 6.11406 2.47029 5.89531 2.6906L4.70156 3.88435L5.49687 4.67966ZM5.1875 1.18904C5.40781 1.40779 5.40781 1.76404 5.1875 1.98435L3.99375 3.1781L3.19844 2.38279L4.39219 1.18904C4.6125 0.968726 4.96875 0.968726 5.1875 1.18904Z"/></svg>
