<svg width="16" height="16" viewBox="0 0 16 16" xmlns="http://www.w3.org/2000/svg"><path fill-rule="evenodd" d="M2.98126 4.99689C2.43761 4.99689 1.99689 4.55617 1.99689 4.01251C1.99689 3.46886 2.43761 3.02814 2.98126 3.02814C3.52492 3.02814 3.96564 3.46886 3.96564 4.01251C3.96564 4.55617 3.52492 4.99689 2.98126 4.99689ZM5.6547 4.46564H13.4328C13.7453 4.46564 13.9969 4.21407 13.9984 3.90157C13.9984 3.59064 13.7453 3.33751 13.4344 3.33751H5.6547C5.34376 3.33751 5.09064 3.59064 5.09064 3.90157C5.09064 4.21251 5.34376 4.46564 5.6547 4.46564ZM1.99689 8.00001C1.99689 8.54367 2.43761 8.98439 2.98126 8.98439C3.52492 8.98439 3.96564 8.54367 3.96564 8.00001C3.96564 7.45636 3.52492 7.01564 2.98126 7.01564C2.43761 7.01564 1.99689 7.45636 1.99689 8.00001ZM5.6547 8.4547H13.4328C13.7453 8.4547 13.9969 8.20157 13.9984 7.89064C13.9984 7.5797 13.7453 7.32657 13.4344 7.32657H5.6547C5.34376 7.32657 5.09064 7.5797 5.09064 7.89064C5.09064 8.20157 5.34376 8.4547 5.6547 8.4547ZM1.99689 11.9875C1.99689 12.5312 2.43761 12.9719 2.98126 12.9719C3.52492 12.9719 3.96564 12.5312 3.96564 11.9875C3.96564 11.4439 3.52492 11.0031 2.98126 11.0031C2.43761 11.0031 1.99689 11.4439 1.99689 11.9875ZM5.6547 12.4422H13.4328C13.7453 12.4422 13.9969 12.1906 13.9984 11.8781C13.9984 11.5672 13.7453 11.3141 13.4344 11.3141H5.6547C5.34376 11.3141 5.09064 11.5672 5.09064 11.8781C5.09064 12.1891 5.34376 12.4422 5.6547 12.4422Z"/></svg>
