<svg width="16" height="16" viewBox="0 0 16 16" xmlns="http://www.w3.org/2000/svg"><path fill-rule="evenodd" clip-rule="evenodd" d="M13 4.875H14.875C15.4969 4.875 16 5.37812 16 6V12.875C16 13.4969 15.4969 14 14.875 14H1.125C0.503125 14 0 13.4969 0 12.875V6C0 5.37812 0.503125 4.875 1.125 4.875H3V3.125C3 2.50313 3.50312 2 4.125 2H11.875C12.4969 2 13 2.50313 13 3.125V4.875ZM11.875 3.125H4.125V4.875H11.875V3.125ZM14.875 6V12.875H1.125V6H14.875ZM7.4375 10H6.0625C5.75156 10 5.5 9.74844 5.5 9.4375C5.5 9.12656 5.75156 8.875 6.0625 8.875H7.4375V7.5C7.4375 7.18906 7.68906 6.9375 8 6.9375C8.31094 6.9375 8.5625 7.18906 8.5625 7.5V8.875H9.9375C10.2484 8.875 10.5 9.12656 10.5 9.4375C10.5 9.74844 10.2484 10 9.9375 10H8.5625V11.375C8.5625 11.6859 8.31094 11.9375 8 11.9375C7.68906 11.9375 7.4375 11.6859 7.4375 11.375V10Z"/></svg>
