<svg width="16" height="16" viewBox="0 0 16 16" xmlns="http://www.w3.org/2000/svg"><path fill-rule="evenodd" d="M12.4957 6.57657C12.8965 6.75254 13.2589 6.99703 13.578 7.30693C14.2738 7.97968 14.6554 8.87356 14.6602 9.82195V12.3884C14.6602 13.1686 14.0061 13.8024 13.2044 13.8024H9.23282C9.00514 14.3194 8.47763 14.662 7.894 14.662H3.46868C2.66539 14.662 2.01282 14.0266 2.01282 13.248V10.6831C2.01282 9.73474 2.39602 8.84086 3.09029 8.16656C3.40775 7.85666 3.77172 7.61216 4.17256 7.43619C3.70759 7.19637 3.30995 6.85065 3.01172 6.42395C2.64775 5.90382 2.45535 5.29648 2.45535 4.66578C2.45535 2.93875 3.90159 1.53408 5.67974 1.53408C6.58404 1.53408 7.43223 1.89692 8.04151 2.53385C8.2756 2.01995 8.64759 1.57924 9.12379 1.25065C9.67054 0.873786 10.3151 0.674454 10.9885 0.674454C12.7667 0.674454 14.2129 2.07913 14.2129 3.80616C14.2129 4.43841 14.0205 5.04576 13.6565 5.56589C13.3583 5.99259 12.9607 6.3383 12.4957 6.57657ZM10.9885 1.78168C10.4305 1.78168 9.90784 1.99192 9.51501 2.37501C9.12058 2.75655 8.90413 3.26422 8.90413 3.80616C8.90413 4.34809 9.12058 4.85577 9.51501 5.2373C9.90784 5.62039 10.4305 5.83063 10.9885 5.83063C11.5465 5.83063 12.0692 5.62039 12.462 5.2373C12.8548 4.85577 13.0729 4.34809 13.0729 3.80616C13.0729 3.26422 12.8564 2.75655 12.462 2.37501C12.0692 1.99192 11.5465 1.78168 10.9885 1.78168ZM3.59375 4.66578C3.59375 4.12384 3.8102 3.61617 4.20463 3.23463C4.59746 2.85154 5.12016 2.64131 5.67813 2.64131C6.23611 2.64131 6.75881 2.85154 7.15164 3.23463C7.54607 3.61772 7.76252 4.1254 7.76252 4.66578C7.76252 5.20771 7.54607 5.71539 7.15164 6.09692C6.75881 6.48002 6.23611 6.69025 5.67813 6.69025C5.12176 6.69025 4.59746 6.48002 4.20303 6.09692C3.8102 5.71539 3.59375 5.20616 3.59375 4.66578ZM8.11206 13.4613C8.17299 13.4037 8.20505 13.3274 8.20505 13.2464V10.6831C8.20505 10.0431 7.95012 9.4373 7.48835 8.97635L7.48353 8.97012C7.47872 8.96389 7.47071 8.9561 7.46269 8.94831C6.98328 8.48269 6.34995 8.22729 5.67813 8.22729C5.00632 8.22729 4.37299 8.48269 3.89358 8.94831C3.41417 9.41394 3.15121 10.0291 3.15121 10.6816V13.2464C3.15121 13.4146 3.29231 13.5517 3.46548 13.5517H7.89079C7.97417 13.5517 8.05273 13.5189 8.11206 13.4613ZM7.92286 7.86911C7.69358 7.6947 7.44666 7.54987 7.18531 7.43463C7.82185 7.10604 8.33172 6.57812 8.62514 5.93808C8.87206 6.19503 9.16067 6.41149 9.47974 6.57501C9.07889 6.75098 8.71493 6.99703 8.39746 7.30538C8.21948 7.47979 8.06075 7.66822 7.92286 7.86911ZM13.2012 12.6936C13.3743 12.6936 13.5154 12.5565 13.5154 12.3884V9.82195C13.5154 9.16945 13.2525 8.55432 12.7731 8.08869C12.2937 7.62306 11.6603 7.36767 10.9885 7.36767C10.3167 7.36767 9.68176 7.62462 9.20396 8.09025C9.01315 8.27401 8.85602 8.48424 8.73417 8.71628C9.13501 9.2987 9.34666 9.97612 9.34666 10.6816V12.6936H13.2012Z"/></svg>
