<svg width="16" height="16" viewBox="0 0 16 16" xmlns="http://www.w3.org/2000/svg"><path d="M12.2469 0.984375C13.1094 0.984375 13.7672 1.82812 14.2438 2.56406C15.0781 3.85313 15.2531 5.45 14.75 7.18594C14.5188 7.97969 14.1485 8.78594 13.6485 9.57969C13.1516 10.3656 12.5422 11.1234 11.8344 11.8313C9.80158 13.8641 7.42501 15.0312 5.31251 15.0312C4.29376 15.0312 3.36876 14.7672 2.56408 14.2453C1.87814 13.8 1.07814 13.1875 0.993763 12.3844C0.964076 12.0969 1.01408 11.6672 1.43283 11.2484C1.73751 10.9422 2.20939 10.5031 2.71876 10.1516C3.32033 9.73594 3.8297 9.53438 4.27658 9.53438C4.41408 9.53438 4.54689 9.55469 4.67501 9.59375C5.00001 9.69375 5.31251 9.99375 5.88439 10.5562C6.14064 10.8094 6.39376 11.0578 6.53126 11.1562C6.54689 11.1672 6.57814 11.1875 6.64845 11.1875C6.78908 11.1875 7.12033 11.1172 7.77033 10.6469C8.28908 10.2703 8.8422 9.76094 9.31408 9.3125C9.8672 8.72969 10.4828 8.05469 10.8516 7.47031C11.1344 7.02344 11.2516 6.66406 11.1578 6.53125C11.0589 6.3921 10.8008 6.13057 10.5714 5.89803L10.5641 5.89062L10.5578 5.88438C10.0094 5.33125 9.69533 5.00156 9.59376 4.675C9.43595 4.17656 9.58439 3.58594 10.0485 2.87031C10.4188 2.29844 10.9063 1.77031 11.25 1.42812C11.6172 1.06094 11.9953 0.984375 12.2469 0.984375ZM12.7094 8.98594C13.1547 8.27969 13.4828 7.56875 13.6844 6.875C13.8938 6.15469 13.9656 5.46719 13.9016 4.83125C13.836 4.22031 13.6391 3.66094 13.3188 3.16563C13.1422 2.89531 12.9063 2.55625 12.6578 2.32656C12.4985 2.17813 12.35 2.09375 12.2516 2.09375C12.1906 2.09375 12.1156 2.13437 12.036 2.21406L12.0344 2.21563C11.7281 2.52344 11.2953 2.99219 10.9828 3.475C10.6922 3.92344 10.6203 4.21094 10.6516 4.33437C10.6641 4.35781 10.7016 4.41563 10.7953 4.525C10.9203 4.67031 11.1 4.85469 11.3485 5.10469L11.3828 5.14062C11.7063 5.46719 11.9281 5.69688 12.0656 5.89062C12.186 6.0625 12.3235 6.35 12.2985 6.75313C12.2875 6.93594 12.2453 7.12188 12.1719 7.32188C12.086 7.55469 11.9578 7.80469 11.7906 8.06719C11.3672 8.73438 10.736 9.42969 10.1172 10.0813L10.0953 10.1047L10.0797 10.1187C9.5797 10.5938 8.99064 11.1359 8.42189 11.5484C8.06876 11.8031 7.7547 11.9891 7.46251 12.1141C7.16876 12.2391 6.90314 12.3 6.65001 12.3C6.37501 12.3 6.12345 12.2234 5.9047 12.075L5.88283 12.0594C5.69533 11.9234 5.46408 11.7031 5.10314 11.3453C4.84845 11.0953 4.67033 10.9219 4.52189 10.7937C4.41095 10.6984 4.35314 10.6625 4.33439 10.6516C4.32033 10.6484 4.30158 10.6453 4.27501 10.6453C4.15626 10.6453 3.87814 10.7 3.34845 11.0656C3.00001 11.3047 2.60783 11.6406 2.21408 12.0344C2.08467 12.1622 2.09217 12.2372 2.09531 12.2685L2.09533 12.2688C2.10158 12.3297 2.14533 12.4688 2.36095 12.6906C2.58908 12.9281 2.91095 13.1484 3.16564 13.3141C3.78751 13.7172 4.50939 13.9219 5.31095 13.9219C5.74376 13.9219 6.19845 13.8609 6.66564 13.7406C7.14376 13.6172 7.63283 13.4344 8.11876 13.1953C8.61564 12.9516 9.11564 12.6469 9.60314 12.2906C10.1016 11.925 10.5891 11.5063 11.05 11.0453C11.7 10.3953 12.2594 9.70156 12.7094 8.98594Z"/></svg>
