<svg clip-rule="evenodd" fill-rule="evenodd" stroke-linejoin="round" stroke-miterlimit="1.4142" version="1.1" viewBox="0 0 16 16" xml:space="preserve" xmlns="http://www.w3.org/2000/svg"><path d="m11.826 13.789c0.19429 0.13757 0.4447 0.17196 0.66795 0.08749 0.22325-0.08507 0.38738-0.27575 0.43685-0.50685 0.52434-2.4642 1.7963-8.7015 2.2736-10.943 0.0362-0.16895-0.02414-0.34454-0.15688-0.45737-0.13275-0.11283-0.31678-0.14542-0.4809-0.084473-2.53 0.93646-10.322 3.8599-13.506 5.0383-0.20214 0.07482-0.33367 0.26911-0.32704 0.48211 0.00724 0.2136 0.15085 0.39884 0.35781 0.46099 1.4282 0.4272 3.303 1.0215 3.303 1.0215s0.87612 2.6459 1.3329 3.9914c0.057322 0.16895 0.18946 0.3017 0.36384 0.34755 0.17378 0.04525 0.35962-0.0025 0.48935-0.1249 0.73372-0.69269 1.8681-1.7637 1.8681-1.7637s2.1553 1.5803 3.3778 2.451zm-6.6433-5.2356 1.0131 3.3416 0.22506-2.1161s3.9142-3.5304 6.1455-5.5427c0.06516-0.059133 0.07421-0.15809 0.01991-0.22748-0.0537-0.06939-0.15266-0.085681-0.22687-0.038617-2.5861 1.6515-7.1767 4.5833-7.1767 4.5833z" stroke-width=".60339"/></svg>
