<svg width="16" height="16" viewBox="0 0 16 16" fill="none" xmlns="http://www.w3.org/2000/svg">
<mask id="mask0" mask-type="alpha" maskUnits="userSpaceOnUse" x="0" y="0" width="16" height="16">
<path fill-rule="evenodd" clip-rule="evenodd" d="M8 0C3.58125 0 0 3.58125 0 8C0 12.4188 3.58125 16 8 16C12.4188 16 16 12.4188 16 8C16 3.58125 12.4188 0 8 0ZM12.8609 12.8609C12.2297 13.4922 11.4938 13.9891 10.675 14.3344C9.82812 14.6938 8.92813 14.875 8 14.875C7.07188 14.875 6.17188 14.6938 5.325 14.3359C4.50625 13.9891 3.77188 13.4938 3.13906 12.8625C2.50781 12.2313 2.01094 11.4953 1.66562 10.6766C1.30625 9.82812 1.125 8.92813 1.125 8C1.125 7.07188 1.30625 6.17188 1.66406 5.325C2.01094 4.50625 2.50625 3.77188 3.1375 3.13906C3.76875 2.50781 4.50469 2.01094 5.32344 1.66562C6.17188 1.30625 7.07188 1.125 8 1.125C8.92813 1.125 9.82812 1.30625 10.675 1.66406C11.4938 2.01094 12.2281 2.50625 12.8609 3.1375C13.4922 3.76875 13.9891 4.50469 14.3344 5.32344C14.6938 6.17188 14.875 7.07188 14.875 8C14.875 8.92813 14.6938 9.82812 14.3359 10.675C13.9891 11.4938 13.4938 12.2297 12.8609 12.8609ZM8.57031 7.44531H11.4375C11.7484 7.44531 12 7.69688 12 8.00781C12 8.31875 11.7484 8.57031 11.4375 8.57031H8.57031V11.4219C8.57031 11.7328 8.31875 11.9844 8.00781 11.9844C7.69688 11.9844 7.44531 11.7328 7.44531 11.4219V8.57031H4.5625C4.25156 8.57031 4 8.31875 4 8.00781C4 7.69688 4.25156 7.44531 4.5625 7.44531H7.44531V4.57812C7.44531 4.26719 7.69688 4.01562 8.00781 4.01562C8.31875 4.01562 8.57031 4.26719 8.57031 4.57812V7.44531Z" fill="white"/>
</mask>
<g mask="url(#mask0)">
<path fill-rule="evenodd" clip-rule="evenodd" d="M7.33331 49.3333C29.4247 49.3333 47.3333 31.4247 47.3333 9.33333C47.3333 -12.7581 29.4247 -30.6667 7.33331 -30.6667C-14.7581 -30.6667 -32.6667 -12.7581 -32.6667 9.33333C-32.6667 31.4247 -14.7581 49.3333 7.33331 49.3333Z" fill="white"/>
</g>
</svg>
