<svg width="16" height="16" viewBox="0 0 16 16" fill="none" xmlns="http://www.w3.org/2000/svg">
<g opacity="0.65">
<path fill-rule="evenodd" clip-rule="evenodd" d="M3.77084 6.11459H1.89584C1.58491 6.11459 1.33334 5.86303 1.33334 5.55209C1.33334 5.24116 1.58491 4.98959 1.89584 4.98959H3.77084C4.08178 4.98959 4.33334 5.24116 4.33334 5.55209C4.33334 5.86303 4.08178 6.11459 3.77084 6.11459ZM3.77084 10.5833C4.08178 10.5833 4.33334 10.8349 4.33334 11.1458C4.33334 11.4568 4.08178 11.7083 3.77084 11.7083H1.89584C1.58491 11.7083 1.33334 11.4568 1.33334 11.1458C1.33334 10.8349 1.58491 10.5833 1.89584 10.5833H3.77084Z" fill="black"/>
<path d="M14.2083 1.33334H3.45834C2.83647 1.33334 2.33334 1.83647 2.33334 2.45834V3.33334C2.33334 3.64428 2.58491 3.89584 2.89584 3.89584C3.20678 3.89584 3.45834 3.64428 3.45834 3.33334V2.45834H14.2083V14.2083H3.45834V13.3646H3.45678C3.45678 13.3537 3.45834 13.3443 3.45834 13.3333C3.45834 13.0224 3.20678 12.7708 2.89584 12.7708C2.58491 12.7708 2.33334 13.0224 2.33334 13.3333C2.33334 13.3443 2.33334 13.3537 2.33491 13.3646H2.33334V14.2083C2.33334 14.8302 2.83647 15.3333 3.45834 15.3333H14.2083C14.8302 15.3333 15.3333 14.8302 15.3333 14.2083V2.45834C15.3333 1.83647 14.8302 1.33334 14.2083 1.33334Z" fill="black"/>
<path fill-rule="evenodd" clip-rule="evenodd" d="M9.32709 9.45834C7.91459 9.45834 6.76459 8.30834 6.76459 6.89584C6.76459 5.48334 7.91459 4.33334 9.32709 4.33334C10.7396 4.33334 11.8896 5.48334 11.8896 6.89584C11.8896 8.30834 10.7396 9.45834 9.32709 9.45834ZM1.89584 8.91147H3.77084C4.08178 8.91147 4.33334 8.65991 4.33334 8.34897C4.33334 8.03803 4.08178 7.78647 3.77084 7.78647H1.89584C1.58491 7.78647 1.33334 8.03803 1.33334 8.34897C1.33334 8.65991 1.58491 8.91147 1.89584 8.91147ZM7.88959 6.89584C7.88959 6.10366 8.53491 5.45834 9.32709 5.45834C10.1193 5.45834 10.7646 6.10366 10.7646 6.89584C10.7646 7.68803 10.1193 8.33334 9.32709 8.33334C8.53491 8.33334 7.88959 7.68803 7.88959 6.89584Z" fill="black"/>
<path d="M12.274 12.3333C12.0083 12.3333 11.7724 12.1458 11.7224 11.8755C11.5037 10.7287 10.4974 9.89584 9.32709 9.89584C8.15678 9.89584 7.15053 10.7287 6.93178 11.8755C6.88022 12.1458 6.64428 12.3333 6.38022 12.3333C6.34584 12.3333 6.3099 12.3302 6.27553 12.324C5.97084 12.2662 5.76928 11.9724 5.82709 11.6662C6.14428 9.98803 7.61615 8.77084 9.32709 8.77084C11.0365 8.77084 12.5099 9.98803 12.8271 11.6662C12.8849 11.9708 12.6849 12.2662 12.3787 12.324C12.3443 12.3302 12.3083 12.3333 12.274 12.3333Z" fill="black"/>
</g>
</svg>
