<svg width="16" height="16" viewBox="0 0 16 16" xmlns="http://www.w3.org/2000/svg">
<path d="M11.6859 10.75C12.1641 11.2281 12.5406 11.7859 12.8031 12.4062C13.075 13.05 13.2125 13.7312 13.2156 14.4359C13.2156 14.7469 12.9641 14.9984 12.6531 14.9984C12.3422 14.9984 12.0906 14.7469 12.0906 14.4359C12.0906 13.3437 11.6656 12.3172 10.8937 11.5453C10.1219 10.7734 9.09531 10.3484 8.00312 10.3484C6.91093 10.3484 5.88437 10.7734 5.11249 11.5453C4.34062 12.3172 3.91562 13.3437 3.91562 14.4359C3.91562 14.7469 3.66406 14.9984 3.35312 14.9984C3.04218 14.9984 2.79062 14.7469 2.79062 14.4359C2.79062 13.7312 2.92812 13.05 3.19999 12.4062C3.46249 11.7859 3.83906 11.2281 4.31718 10.75C4.79531 10.2719 5.35312 9.89531 5.97343 9.63281C6.18437 9.54218 6.40156 9.46875 6.62031 9.40781C6.00156 9.19843 5.43437 8.84843 4.95937 8.37343C4.14531 7.56093 3.69843 6.47968 3.69843 5.33125C3.69843 4.18281 4.14687 3.10156 4.95937 2.28906C5.77187 1.475 6.85312 1.02812 8.00156 1.02812C9.14999 1.02812 10.2312 1.47656 11.0437 2.28906C11.8578 3.10156 12.3047 4.18281 12.3047 5.33125C12.3047 6.47968 11.8562 7.56093 11.0437 8.37343C10.5687 8.84843 10.0016 9.19843 9.38281 9.40781C9.60156 9.46875 9.81874 9.54375 10.0297 9.63281C10.65 9.89531 11.2078 10.2719 11.6859 10.75ZM7.99999 2.15312C6.24843 2.15312 4.82187 3.57812 4.82187 5.33125C4.82187 7.08281 6.24687 8.50937 7.99999 8.50937C9.75312 8.50937 11.1781 7.08437 11.1781 5.33125C11.1781 3.57812 9.75156 2.15312 7.99999 2.15312Z"/>
</svg>
