<svg width="16" height="16" viewBox="0 0 16 16" fill="none" xmlns="http://www.w3.org/2000/svg">
<g opacity="0.65">
<path fill-rule="evenodd" clip-rule="evenodd" d="M14.9688 6.49376L15.0281 6.86876C15.0969 7.28126 15.1281 7.65157 15.1234 7.99688C15.1234 8.34532 15.0922 8.71407 15.0266 9.12501L14.9672 9.50001L13.8219 9.88282C13.7219 10.1938 13.5969 10.4953 13.4484 10.7844L13.9891 11.8641L13.7672 12.1734C13.5297 12.5 13.2922 12.7844 13.0375 13.0391C12.7922 13.2891 12.5094 13.5281 12.1734 13.7703L11.8656 13.9922L10.7859 13.4516C10.4937 13.5984 10.1922 13.7234 9.88594 13.8234L9.50469 14.9703L9.12969 15.0297C8.71719 15.0953 8.34844 15.1266 8 15.1266C7.65156 15.1266 7.28281 15.0953 6.87187 15.0297L6.49687 14.9703L6.11562 13.8234C5.80625 13.725 5.50469 13.5984 5.21406 13.45L4.13594 13.9906L3.82812 13.7688C3.48906 13.5203 3.20625 13.2813 2.96406 13.0375C2.70469 12.7766 2.46563 12.4938 2.23438 12.1719L2.0125 11.8656L2.55 10.7891C2.40156 10.5 2.27656 10.1969 2.17656 9.88751L1.03125 9.50469L0.971875 9.12969C0.90625 8.71876 0.875 8.35001 0.875 8.00001C0.875 7.65157 0.90625 7.28282 0.971875 6.86876L1.03125 6.49376L2.17656 6.11407C2.27656 5.80469 2.40156 5.50313 2.54844 5.21407L2.00781 4.13438L2.22969 3.82501C2.67656 3.20938 3.21406 2.67344 3.82656 2.22969L4.13438 2.00782L5.2125 2.55001C5.49531 2.40626 5.79844 2.28126 6.11406 2.17813L6.49531 1.03126L6.87031 0.971881C7.29375 0.904694 7.65312 0.873444 8 0.873444C8.35625 0.873444 8.71406 0.904694 9.12813 0.970319L9.5 1.02813L9.88125 2.17032C10.1906 2.27032 10.4922 2.39532 10.7828 2.54376L11.8625 2.00313L12.1703 2.22501C12.7812 2.66876 13.3188 3.20626 13.7688 3.82032L13.9906 4.12969L13.45 5.20938C13.5984 5.49844 13.7234 5.80157 13.8234 6.11094L14.9688 6.49376ZM14.0047 7.99532V7.98751C14.0078 7.78751 13.9953 7.57657 13.9656 7.34219L13.4125 7.15782L12.9266 6.99532L12.7734 6.50626C12.6844 6.22032 12.5672 5.93907 12.4281 5.67032L12.1937 5.21876L12.6812 4.24219C12.4047 3.90001 12.0922 3.58907 11.7516 3.31563L10.775 3.80469L10.3219 3.56719C10.0547 3.42969 9.775 3.31407 9.49062 3.22501L9.00156 3.07344L8.65469 2.03751C8.42656 2.01094 8.21094 1.99688 8.00156 1.99688C7.79844 1.99688 7.58438 2.01094 7.34844 2.03751L7.16406 2.59063L7.00156 3.07657L6.5125 3.22969C6.22344 3.32032 5.94375 3.43594 5.68125 3.57344L5.22656 3.81251L4.24844 3.32344C3.90781 3.59688 3.59687 3.90782 3.32344 4.24844L3.58281 4.76876L3.81094 5.22657L3.57344 5.67969C3.43438 5.94844 3.31875 6.22813 3.23125 6.51094L3.07969 7.00157L2.04219 7.34688C2.01562 7.57657 2.00156 7.79063 2.00156 8.00157C2.00156 8.21251 2.01406 8.42813 2.04219 8.65626L3.08281 9.00157L3.23438 9.49376C3.31875 9.77188 3.43438 10.05 3.57656 10.3219L3.81406 10.775L3.32656 11.7516C3.46719 11.9297 3.60938 12.0906 3.76094 12.2422C3.90937 12.3906 4.07031 12.5328 4.25156 12.6766L4.77187 12.4172L5.23281 12.1875L5.68906 12.425C5.94531 12.5609 6.22188 12.675 6.5125 12.7641L7.00469 12.9156L7.16563 13.4047L7.35 13.9578C7.57969 13.9844 7.79531 13.9984 8.00469 13.9984C8.21563 13.9984 8.43125 13.9859 8.65938 13.9578L8.84375 13.4047L9.00313 12.9203L9.49219 12.7672C9.77812 12.6766 10.0594 12.5609 10.3266 12.4219L10.7797 12.1859L11.7562 12.675C11.9375 12.5328 12.0984 12.3906 12.2437 12.2438L12.2469 12.2406C12.3953 12.0922 12.5375 11.9313 12.6812 11.75L12.1906 10.7703L12.4312 10.3156C12.5703 10.0531 12.6844 9.77657 12.7703 9.49219L12.9219 9.00001L13.4109 8.83438L13.9641 8.65001C13.9906 8.42032 14.0047 8.20626 14.0047 7.99532ZM8.00313 5.27657C6.50156 5.27657 5.27969 6.49844 5.27969 8.00001C5.27969 9.50157 6.50156 10.7234 8.00313 10.7234C9.50469 10.7234 10.7266 9.50157 10.7266 8.00001C10.7266 6.49844 9.50469 5.27657 8.00313 5.27657ZM8.00313 9.59844C8.42969 9.59844 8.83125 9.43126 9.13281 9.12969C9.43437 8.82813 9.60156 8.42657 9.60156 8.00001C9.60156 7.57344 9.43437 7.17344 9.13281 6.87032C8.83125 6.56719 8.42969 6.40157 8.00313 6.40157C7.57656 6.40157 7.175 6.56876 6.87344 6.87032C6.57031 7.17188 6.40469 7.57344 6.40469 8.00001C6.40469 8.42657 6.57188 8.82813 6.87344 9.12969C7.175 9.43282 7.57656 9.59844 8.00313 9.59844Z" fill="black"/>
</g>
</svg>
