<svg fill="none" version="1.1" viewBox="0 0 16 16" xmlns="http://www.w3.org/2000/svg"><mask id="a" x="0" y="0" width="16" height="16" mask-type="alpha" maskUnits="userSpaceOnUse"><path d="m8 0c-4.4188 0-8 3.5812-8 8 0 4.4188 3.5812 8 8 8 4.4188 0 8-3.5812 8-8 0-4.4188-3.5812-8-8-8zm4.8609 12.861c-0.6312 0.6313-1.3671 1.1282-2.1859 1.4735-0.84688 0.3594-1.7469 0.5406-2.675 0.5406-0.92812 0-1.8281-0.1812-2.675-0.5391-0.81875-0.3468-1.5531-0.8421-2.1859-1.4734-0.63125-0.6312-1.1281-1.3672-1.4734-2.1859-0.35937-0.84848-0.54062-1.7485-0.54062-2.6766 0-0.92812 0.18125-1.8281 0.53906-2.675 0.34688-0.81875 0.84219-1.5531 1.4734-2.1859 0.63125-0.63125 1.3672-1.1281 2.1859-1.4734 0.84844-0.35937 1.7484-0.54062 2.6766-0.54062 0.92813 0 1.8281 0.18125 2.675 0.53906 0.8188 0.34688 1.5531 0.84219 2.1859 1.4734 0.6313 0.63125 1.1282 1.3672 1.4735 2.1859 0.3594 0.84844 0.5406 1.7484 0.5406 2.6766 0 0.92813-0.1812 1.8281-0.5391 2.675-0.3468 0.8188-0.8421 1.5547-1.475 2.1859zm-4.2906-5.4156h2.8672c0.3109 0 0.5625 0.25157 0.5625 0.5625 0 0.31094-0.2516 0.5625-0.5625 0.5625h-2.8672v2.8516c0 0.3109-0.25156 0.5625-0.5625 0.5625-0.31093 0-0.5625-0.2516-0.5625-0.5625v-2.8516h-2.8828c-0.31094 0-0.5625-0.25156-0.5625-0.5625 0-0.31093 0.25156-0.5625 0.5625-0.5625h2.8828v-2.8672c0-0.31093 0.25157-0.5625 0.5625-0.5625 0.31094 0 0.5625 0.25157 0.5625 0.5625v2.8672z" clip-rule="evenodd" fill="#fff" fill-rule="evenodd"/></mask><g mask="url(#a)"><path d="m7.3333 49.333c22.091 0 40-17.909 40-40 0-22.091-17.909-40-40-40-22.091 0-40 17.909-40 40 0 22.091 17.909 40 40 40z" clip-rule="evenodd" fill="#fff" fill-rule="evenodd"/></g></svg>
