<svg width="16" height="16" viewBox="0 0 16 16" xmlns="http://www.w3.org/2000/svg" fill="white"><path fill-rule="evenodd" d="M2.125 1H6.21875C6.84062 1 7.34375 1.50313 7.34375 2.125V6.21875C7.34375 6.84062 6.84062 7.34375 6.21875 7.34375H2.125C1.50313 7.34375 1 6.84062 1 6.21875V2.125C1 1.50313 1.50313 1 2.125 1ZM6.21875 6.21875V2.125H2.125V6.21875H6.21875ZM13.875 2.125V6.21875H9.78125V2.125H13.875ZM9.78125 1H13.875C14.4969 1 15 1.50313 15 2.125V6.21875C15 6.84062 14.4969 7.34375 13.875 7.34375H9.78125C9.15938 7.34375 8.65625 6.84062 8.65625 6.21875V2.125C8.65625 1.50313 9.15938 1 9.78125 1ZM6.21875 9.78125V13.875H2.125V9.78125H6.21875ZM2.125 8.65625H6.21875C6.84062 8.65625 7.34375 9.15938 7.34375 9.78125V13.875C7.34375 14.4969 6.84062 15 6.21875 15H2.125C1.50313 15 1 14.4969 1 13.875V9.78125C1 9.15938 1.50313 8.65625 2.125 8.65625ZM13.875 9.78125V13.875H9.78125V9.78125H13.875ZM9.78125 8.65625H13.875C14.4969 8.65625 15 9.15938 15 9.78125V13.875C15 14.4969 14.4969 15 13.875 15H9.78125C9.15938 15 8.65625 14.4969 8.65625 13.875V9.78125C8.65625 9.15938 9.15938 8.65625 9.78125 8.65625Z"/></svg>
