<svg width="16" height="16" viewBox="0 0 16 16" xmlns="http://www.w3.org/2000/svg" fill="white"><path fill-rule="evenodd" d="M14.5687 6.90938L8.75469 1.31406C8.32656 0.926563 7.675 0.926563 7.24687 1.31406L1.43125 6.90938C1.2 7.11719 1.18281 7.47188 1.39062 7.70312C1.59844 7.93437 1.95469 7.95156 2.18437 7.74375L8 2.14844L13.8156 7.74375C14.0469 7.95156 14.4016 7.93437 14.6094 7.70312C14.8172 7.47188 14.8 7.11719 14.5687 6.90938ZM13.0156 8.98438C12.7047 8.98438 12.4531 9.23594 12.4531 9.54688V13.875H10.2187V10.125C10.2187 9.50313 9.71562 9 9.09375 9H6.90625C6.28437 9 5.78125 9.50313 5.78125 10.125V13.875H3.54687V9.54688C3.54687 9.23594 3.29531 8.98438 2.98437 8.98438C2.67344 8.98438 2.42187 9.23594 2.42187 9.54688V13.875C2.42187 14.4969 2.925 15 3.54687 15H12.4531C13.075 15 13.5781 14.4969 13.5781 13.875V9.54688C13.5781 9.23594 13.3266 8.98438 13.0156 8.98438ZM9.09375 13.875V10.125H6.90625V13.875H9.09375Z"/></svg>
